<svg width="64" height="64" viewBox="0 0 64 64" fill="none" xmlns="http://www.w3.org/2000/svg">
<g clip-path="url(#clip0_3_2)">
<path d="M56 32C56 18.7452 45.2548 8 32 8C18.7452 8 8 18.7452 8 32C8 45.2548 18.7452 56 32 56C45.2548 56 56 45.2548 56 32Z" fill="white"/>
<path fill-rule="evenodd" clip-rule="evenodd" d="M25 24H35V29H40V40H29V35H24V24H25ZM30 34V39H39V30H30V34ZM34 29H29V34H25V25H34V29ZM34 32H35V34H37V35H35V37H34V35H32V34H34V32Z" fill="white" stroke="url(#paint0_linear_3_2)" stroke-width="1.2" stroke-linecap="round" stroke-linejoin="round"/>
<path d="M55.5 32C55.5 19.0213 44.9787 8.5 32 8.5C19.0213 8.5 8.5 19.0213 8.5 32C8.5 44.9787 19.0213 55.5 32 55.5C44.9787 55.5 55.5 44.9787 55.5 32Z" stroke="url(#paint1_radial_3_2)" stroke-opacity="0.15"/>
<path d="M55.5 32C55.5 19.0213 44.9787 8.5 32 8.5C19.0213 8.5 8.5 19.0213 8.5 32C8.5 44.9787 19.0213 55.5 32 55.5C44.9787 55.5 55.5 44.9787 55.5 32Z" stroke="url(#paint2_linear_3_2)" stroke-opacity="0.5"/>
<path d="M63.5 32C63.5 14.603 49.397 0.5 32 0.5C14.603 0.5 0.5 14.603 0.5 32C0.5 49.397 14.603 63.5 32 63.5C49.397 63.5 63.5 49.397 63.5 32Z" stroke="black" stroke-opacity="0.1"/>
</g>
<defs>
<linearGradient id="paint0_linear_3_2" x1="59.4314" y1="44.4026" x2="44.7537" y2="61.4393" gradientUnits="userSpaceOnUse">
<stop stop-color="#FF1E56"/>
<stop offset="1" stop-color="#D67FDC"/>
</linearGradient>
<radialGradient id="paint1_radial_3_2" cx="0" cy="0" r="1" gradientUnits="userSpaceOnUse" gradientTransform="translate(32 8) rotate(90) scale(61.7143)">
<stop/>
<stop offset="1"/>
</radialGradient>
<linearGradient id="paint2_linear_3_2" x1="8" y1="8" x2="18.5" y2="27.5" gradientUnits="userSpaceOnUse">
<stop/>
<stop offset="1" stop-opacity="0"/>
</linearGradient>
<clipPath id="clip0_3_2">
<rect width="64" height="64" fill="white"/>
</clipPath>
</defs>
</svg>
